<svg width="56" height="61" viewBox="0 0 56 61" fill="none" xmlns="http://www.w3.org/2000/svg">
<rect x="-1" y="1" width="54" height="59" rx="9" transform="matrix(-1 0 0 1 54 0)" fill="#2773DD" fill-opacity="0.7" stroke="white" stroke-width="2"/>
<line y1="-1" x2="29.0689" y2="-1" transform="matrix(0.707107 -0.707107 -0.707107 -0.707107 18.5 49.8)" stroke="white" stroke-width="2"/>
<line y1="-1" x2="29.0689" y2="-1" transform="matrix(0.707107 -0.707107 -0.707107 -0.707107 18.5 49.8)" stroke="white" stroke-width="2"/>
<line y1="-1" x2="29.0689" y2="-1" transform="matrix(0.707107 -0.707107 -0.707107 -0.707107 18.5 49.8)" stroke="white" stroke-width="2"/>
<line y1="-1" x2="29.0689" y2="-1" transform="matrix(0.707107 0.707107 0.707107 -0.707107 20 10)" stroke="white" stroke-width="2"/>
<line y1="-1" x2="29.0689" y2="-1" transform="matrix(0.707107 0.707107 0.707107 -0.707107 20 10)" stroke="white" stroke-width="2"/>
<line y1="-1" x2="29.0689" y2="-1" transform="matrix(0.707107 0.707107 0.707107 -0.707107 20 10)" stroke="white" stroke-width="2"/>
</svg>
